<?xml version="1.0" encoding="utf-8"?>
<!-- Generator: Adobe Illustrator 25.2.2, SVG Export Plug-In . SVG Version: 6.00 Build 0)  -->
<svg version="1.1" id="Laag_1" xmlns="http://www.w3.org/2000/svg" xmlns:xlink="http://www.w3.org/1999/xlink" x="0px" y="0px"
	 viewBox="0 0 24 24" style="enable-background:new 0 0 24 24;" xml:space="preserve">
<style type="text/css">
	.st0{fill:#0F4C81;}
</style>
<path class="st0" d="M10.5,12.8H6c-0.4,0-0.8,0.3-0.8,0.8V18c0,0.4,0.3,0.8,0.8,0.8h4.5c0.4,0,0.8-0.3,0.8-0.8v-4.5
	C11.2,13.1,10.9,12.8,10.5,12.8z M9.7,17.3h-3v-3h3V17.3z M18,5.2h-4.5c-0.4,0-0.8,0.3-0.8,0.8v4.5c0,0.4,0.3,0.8,0.8,0.8H18
	c0.4,0,0.8-0.3,0.8-0.8V6C18.8,5.5,18.5,5.2,18,5.2z M17.3,9.7h-3v-3h3V9.7z M18,15h-1.5v-1.5c0-0.4-0.3-0.8-0.8-0.8
	S15,13.1,15,13.5V15h-1.5c-0.4,0-0.8,0.3-0.8,0.8s0.3,0.8,0.8,0.8H15V18c0,0.4,0.3,0.8,0.8,0.8s0.8-0.3,0.8-0.8v-1.5H18
	c0.4,0,0.8-0.3,0.8-0.8S18.5,15,18,15z M10.5,5.2H6C5.5,5.2,5.2,5.5,5.2,6v4.5c0,0.4,0.3,0.8,0.8,0.8h4.5c0.4,0,0.8-0.3,0.8-0.8V6
	C11.2,5.5,10.9,5.2,10.5,5.2z M9.7,9.7h-3v-3h3V9.7z"/>
</svg>
