<?xml version="1.0" encoding="utf-8"?>
<!-- Generator: Adobe Illustrator 25.2.2, SVG Export Plug-In . SVG Version: 6.00 Build 0)  -->
<svg version="1.1" id="Laag_1" xmlns="http://www.w3.org/2000/svg" xmlns:xlink="http://www.w3.org/1999/xlink" x="0px" y="0px"
	 viewBox="0 0 1593.7 1000" style="enable-background:new 0 0 1593.7 1000;" xml:space="preserve">
<style type="text/css">
	.st0{fill:#0F4C81;}
	.st1{fill:url(#SVGID_1_);}
</style>
<g>
	<path class="st0" d="M568.5,488.9c-9,0-13.5-4.5-13.5-13.5V385c0-9,4.5-13.5,13.5-13.5h58.1c6.8,0,10.2,3.3,10.2,10
		c0,6.8-3.4,10.2-10.2,10.2h-47v27.5h43.1c6.9,0,10.3,3.4,10.3,10.2c0,6.8-3.4,10.2-10.3,10.2h-43.1v29.3h47c6.8,0,10.2,3.3,10.2,10
		c0,6.8-3.4,10.2-10.2,10.2H568.5z"/>
	<path class="st0" d="M669.3,488.9c-9,0-13.5-4.5-13.5-13.5V385c0-9,4.5-13.5,13.5-13.5h58.1c6.8,0,10.2,3.3,10.2,10
		c0,6.8-3.4,10.2-10.2,10.2h-47v27.5h43.1c6.9,0,10.3,3.4,10.3,10.2c0,6.8-3.4,10.2-10.3,10.2h-43.1v29.3h47c6.8,0,10.2,3.3,10.2,10
		c0,6.8-3.4,10.2-10.2,10.2H669.3z"/>
	<path class="st0" d="M768.5,490.4c-8,0-12-4.2-12-12.5V383c0-4.2,1-7.4,3.1-9.7c2.1-2.2,4.8-3.3,8.2-3.3c2.9,0,5.2,0.6,6.8,1.7
		c1.7,1.2,3.6,3.1,5.7,5.7l54,68.8v-63.9c0-8.2,4-12.3,12-12.3c8,0,12,4.1,12,12.3v96.1c0,3.7-0.9,6.6-2.8,8.7
		c-1.9,2.2-4.4,3.2-7.7,3.2c-3.1,0-5.6-0.6-7.4-1.8c-1.8-1.2-3.8-3.2-5.9-5.8l-54-68.8v63.9C780.5,486.2,776.5,490.4,768.5,490.4z"
		/>
	<path class="st0" d="M893.9,490.4c-3.8,0-6.7-1.1-8.7-3.2c-2-2.1-3-5.1-3-8.8V382c0-3.9,1.1-6.9,3.2-8.9c2.1-2.1,5.1-3.1,9-3.1
		c3.3,0,6,0.7,7.9,2c1.9,1.3,3.7,3.5,5.4,6.5l35.6,65.1l35.6-65.1c1.7-3,3.5-5.2,5.4-6.5c1.9-1.3,4.5-2,7.7-2c3.8,0,6.7,1,8.7,3.1
		c2.1,2.1,3.1,5,3.1,8.9v96.4c0,8-3.9,12-11.7,12c-7.9,0-11.8-4-11.8-12v-61.1l-27.3,49.1c-1.3,2.1-2.7,3.7-4.2,4.7
		c-1.5,1.1-3.5,1.6-5.9,1.6c-2.4,0-4.4-0.5-6-1.6c-1.6-1.1-2.9-2.6-4.2-4.7l-27.3-48.6v60.6C905.6,486.4,901.7,490.4,893.9,490.4z"
		/>
	<path class="st0" d="M1031.1,490.4c-4.7,0-8-1.6-10-4.7c-2-3.1-1.9-6.9,0.2-11.5l42.6-93.4c1.8-3.8,3.9-6.5,6.3-8.2
		c2.4-1.7,5.3-2.6,8.5-2.6c3.2,0,6.1,0.9,8.5,2.6c2.4,1.7,4.5,4.5,6.2,8.2l43,93.4c2.1,4.7,2.2,8.5,0.2,11.6
		c-1.9,3.1-5.1,4.6-9.4,4.6c-3.8,0-6.7-0.9-8.7-2.7c-2.1-1.8-3.9-4.6-5.4-8.3l-7-16h-54.8l-6.8,16c-1.7,3.9-3.4,6.7-5.3,8.4
		C1037.2,489.5,1034.6,490.4,1031.1,490.4z M1078.4,399l-18.5,44.3h37.6l-18.8-44.3H1078.4z"/>
	<path class="st0" d="M1156.5,490.4c-4.7,0-8-1.6-10-4.7c-2-3.1-1.9-6.9,0.2-11.5l42.6-93.4c1.8-3.8,3.9-6.5,6.3-8.2
		c2.4-1.7,5.3-2.6,8.5-2.6c3.2,0,6.1,0.9,8.5,2.6c2.4,1.7,4.5,4.5,6.2,8.2l43,93.4c2.1,4.7,2.2,8.5,0.2,11.6
		c-1.9,3.1-5.1,4.6-9.4,4.6c-3.8,0-6.7-0.9-8.7-2.7c-2.1-1.8-3.9-4.6-5.4-8.3l-7-16h-54.8l-6.8,16c-1.7,3.9-3.4,6.7-5.3,8.4
		C1162.6,489.5,1160,490.4,1156.5,490.4z M1203.8,399l-18.5,44.3h37.6l-18.8-44.3H1203.8z"/>
	<path class="st0" d="M1291.7,488.9c-4.3,0-7.6-1.1-9.8-3.4c-2.2-2.3-3.3-5.5-3.3-9.7v-91.4c0-4.2,1.1-7.5,3.3-9.7
		c2.2-2.3,5.4-3.4,9.7-3.4c8.5,0,12.8,4.4,12.8,13.2v82.8h44.6c7.4,0,11.2,3.6,11.2,10.8c0,7.3-3.7,11-11.2,11H1291.7z"/>
	<path class="st0" d="M555.5,630c-3.5,0-6-1.2-7.5-3.5c-1.5-2.3-1.5-5.2,0.1-8.6l32-70.2c1.3-2.8,2.9-4.9,4.8-6.2
		c1.8-1.3,4-1.9,6.4-1.9c2.4,0,4.5,0.6,6.4,1.9c1.8,1.3,3.4,3.4,4.6,6.2l32.3,70.2c1.6,3.5,1.6,6.4,0.2,8.7
		c-1.5,2.3-3.8,3.4-7.1,3.4c-2.8,0-5-0.7-6.6-2c-1.5-1.3-2.9-3.4-4.1-6.3l-5.3-12h-41.2l-5.1,12c-1.3,2.9-2.6,5-4,6.3
		C560.1,629.4,558.1,630,555.5,630z M591,561.3l-13.9,33.3h28.3l-14.1-33.3H591z"/>
	<path class="st0" d="M656.2,630c-6,0-9-3.1-9-9.4v-71.3c0-3.2,0.8-5.6,2.3-7.3c1.5-1.7,3.6-2.5,6.2-2.5c2.2,0,3.9,0.4,5.1,1.3
		c1.3,0.9,2.7,2.3,4.3,4.3l40.5,51.7v-48c0-6.2,3-9.3,9-9.3c6,0,9,3.1,9,9.3V621c0,2.8-0.7,4.9-2.1,6.6c-1.4,1.6-3.3,2.4-5.8,2.4
		c-2.3,0-4.2-0.5-5.6-1.4c-1.4-0.9-2.9-2.4-4.4-4.4l-40.5-51.7v48C665.2,626.9,662.2,630,656.2,630z"/>
	<path class="st0" d="M751.5,628.9c-6.8,0-10.1-3.4-10.1-10.1v-67.9c0-6.8,3.4-10.1,10.1-10.1h24.4c15,0,26.6,3.8,34.9,11.4
		c8.3,7.6,12.4,18.5,12.4,32.6c0,14.1-4.1,25-12.4,32.6c-8.3,7.7-19.9,11.5-34.9,11.5H751.5z M760.8,613h14
		c18.8,0,28.1-9.4,28.1-28.3c0-18.8-9.4-28.1-28.1-28.1h-14V613z"/>
	<path class="st0" d="M848.3,628.9c-6.8,0-10.1-3.4-10.1-10.1v-67.9c0-6.8,3.4-10.1,10.1-10.1H892c5.1,0,7.6,2.5,7.6,7.5
		c0,5.1-2.5,7.6-7.6,7.6h-35.3v20.6h32.4c5.2,0,7.8,2.5,7.8,7.6c0,5.1-2.6,7.6-7.8,7.6h-32.4v22H892c5.1,0,7.6,2.5,7.6,7.5
		c0,5.1-2.5,7.6-7.6,7.6H848.3z"/>
	<path class="st0" d="M923.6,630c-3.2,0-5.6-0.9-7.3-2.6c-1.7-1.8-2.5-4.2-2.5-7.4v-69.4c0-6.6,3.3-9.9,9.9-9.9h30.4
		c9.8,0,17.4,2.4,22.8,7.1c5.3,4.8,8,11.4,8,19.9c0,6.6-1.7,12.1-5.1,16.4c-3.4,4.4-8.2,7.4-14.4,8.9c4.4,1.3,8,4.5,10.9,9.6
		l7.8,14.4c1.8,3.2,2.1,6.1,1,8.8c-1.1,2.7-3.7,4.1-7.9,4.1c-2.8,0-5-0.6-6.8-1.8c-1.8-1.2-3.3-3-4.5-5.4l-12-22.1
		c-1.3-2.3-2.8-3.9-4.6-4.8c-1.8-0.8-4-1.3-6.5-1.3h-9.5V620c0,3.2-0.8,5.6-2.4,7.4C929.2,629.1,926.8,630,923.6,630z M933.3,580.7
		h17.4c10.4,0,15.6-4.2,15.6-12.5c0-8.3-5.2-12.4-15.6-12.4h-17.4V580.7z"/>
	<path class="st0" d="M1009.9,630c-2.8,0-5-0.8-6.5-2.4c-1.5-1.6-2.3-3.8-2.3-6.6v-72.4c0-2.9,0.8-5.1,2.4-6.7
		c1.6-1.5,3.8-2.3,6.8-2.3c2.5,0,4.5,0.5,5.9,1.5c1.5,1,2.8,2.6,4.1,4.9l26.8,48.9l26.8-48.9c1.3-2.3,2.6-3.9,4.1-4.9
		c1.5-1,3.4-1.5,5.8-1.5c2.8,0,5,0.8,6.6,2.3c1.5,1.5,2.3,3.8,2.3,6.7V621c0,6-2.9,9-8.8,9c-5.9,0-8.9-3-8.9-9v-45.9l-20.5,36.9
		c-1,1.6-2.1,2.8-3.2,3.6c-1.1,0.8-2.6,1.2-4.4,1.2c-1.8,0-3.3-0.4-4.5-1.2c-1.2-0.8-2.2-2-3.1-3.6l-20.5-36.5V621
		C1018.7,627,1015.8,630,1009.9,630z"/>
	<path class="st0" d="M1113,630c-3.5,0-6-1.2-7.5-3.5c-1.5-2.3-1.5-5.2,0.1-8.6l32-70.2c1.3-2.8,2.9-4.9,4.8-6.2
		c1.8-1.3,4-1.9,6.4-1.9c2.4,0,4.5,0.6,6.4,1.9c1.8,1.3,3.4,3.4,4.6,6.2l32.3,70.2c1.6,3.5,1.6,6.4,0.2,8.7
		c-1.5,2.3-3.8,3.4-7.1,3.4c-2.8,0-5-0.7-6.6-2c-1.5-1.3-2.9-3.4-4.1-6.3l-5.3-12h-41.2l-5.1,12c-1.3,2.9-2.6,5-4,6.3
		C1117.6,629.4,1115.6,630,1113,630z M1148.5,561.3l-13.9,33.3h28.3l-14.1-33.3H1148.5z"/>
	<path class="st0" d="M1207.2,630c-3.5,0-6-1.2-7.5-3.5c-1.5-2.3-1.5-5.2,0.1-8.6l32-70.2c1.3-2.8,2.9-4.9,4.8-6.2
		c1.8-1.3,4-1.9,6.4-1.9c2.4,0,4.5,0.6,6.4,1.9c1.8,1.3,3.4,3.4,4.6,6.2l32.3,70.2c1.6,3.5,1.6,6.4,0.2,8.7
		c-1.5,2.3-3.8,3.4-7.1,3.4c-2.8,0-5-0.7-6.6-2c-1.5-1.3-2.9-3.4-4.1-6.3l-5.3-12h-41.2l-5.1,12c-1.3,2.9-2.6,5-4,6.3
		C1211.8,629.4,1209.8,630,1207.2,630z M1242.7,561.3l-13.9,33.3h28.3l-14.1-33.3H1242.7z"/>
	<path class="st0" d="M1308.8,628.9c-3.3,0-5.7-0.9-7.4-2.6c-1.7-1.7-2.5-4.1-2.5-7.3v-68.7c0-3.2,0.8-5.6,2.5-7.3
		c1.7-1.7,4.1-2.6,7.3-2.6c6.4,0,9.6,3.3,9.6,9.9v62.2h33.5c5.6,0,8.4,2.7,8.4,8.1c0,5.5-2.8,8.3-8.4,8.3H1308.8z"/>
</g>
<linearGradient id="SVGID_1_" gradientUnits="userSpaceOnUse" x1="266.9894" y1="605.4587" x2="428.5292" y2="388.0327">
	<stop  offset="0" style="stop-color:#FF0036"/>
	<stop  offset="5.584214e-03" style="stop-color:#FD0137"/>
	<stop  offset="0.2434" style="stop-color:#982156"/>
	<stop  offset="0.4351" style="stop-color:#4E386D"/>
	<stop  offset="0.5714" style="stop-color:#21467C"/>
	<stop  offset="0.6397" style="stop-color:#0F4C81"/>
</linearGradient>
<path class="st1" d="M382.9,502.6c1.3-1.3,3.3-1.3,4.6-0.1l70.1,65.9c0.4,0.4,1.1,0.3,1.4-0.2c14.1-24.4,20.5-53.7,16.3-84.7
	c-7.6-55.5-60-106.5-115.7-112.7c-79.9-9-147.7,53.4-147.7,131.5c0,40.4,18.1,76.5,46.5,100.8c0.3,0.3,0.7,0.3,1,0.1
	c0.5-0.3,1-0.4,1.5-0.4h88.7c0.8,0,1.5,0.3,2,0.8c0.5,0.5,0.8,1.3,0.8,2v9c0,0.5,0.4,0.9,0.9,0.9h8.4c0.5,0,0.9,0.4,0.9,0.9v8.1
	c0,0.5,0.4,0.9,0.9,0.9h13.7c0.5,0,0.9,0.4,0.9,0.9v2.9c0,0.6,0.5,1,1.1,0.8c23.8-6.5,44.9-19.5,61.3-37c0.3-0.3,0.3-0.9,0-1.2
	l-69-73.3c-1.2-1.3-1.2-3.4,0.1-4.6L382.9,502.6z M340.3,532.3c-0.3,0.3-0.3,0.9,0,1.2l0,0c5.3,5.3,5.3,13.9,0,19.2
	c-5.3,5.3-13.9,5.3-19.2,0L276.4,508c-5.3-5.3-5.3-13.9,0-19.2c4.7-4.7,11.9-5.2,17.2-1.6c0.3,0.2,0.8,0.2,1.1-0.1l63.5-63.5
	c0.3-0.3,0.3-0.8,0.1-1.1c-3.6-5.3-3.1-12.5,1.6-17.2c5.3-5.3,13.9-5.3,19.2,0l44.7,44.7c5.3,5.3,5.3,13.9,0,19.2
	c-5.3,5.3-13.9,5.3-19.2,0l0,0c-0.3-0.3-0.9-0.3-1.2,0L340.3,532.3z"/>
</svg>
