<?xml version="1.0" encoding="utf-8"?>
<!-- Generator: Adobe Illustrator 25.2.2, SVG Export Plug-In . SVG Version: 6.00 Build 0)  -->
<svg version="1.1" id="Laag_1" xmlns="http://www.w3.org/2000/svg" xmlns:xlink="http://www.w3.org/1999/xlink" x="0px" y="0px"
	 viewBox="0 0 24 24" style="enable-background:new 0 0 24 24;" xml:space="preserve">
<style type="text/css">
	.st0{fill:#0F4C81;}
</style>
<path class="st0" d="M17.4,9.3L17.4,9.3l-4.1-3.6c-0.8-0.7-1.9-0.7-2.7,0L6.6,9.3c-0.4,0.4-0.7,0.9-0.7,1.5v5.9c0,1.1,0.9,2,2,2h8.1
	c1.1,0,2-0.9,2-2v-5.9C18.1,10.2,17.9,9.7,17.4,9.3z M13.4,17.4h-2.7V14c0-0.4,0.3-0.7,0.7-0.7h1.4c0.4,0,0.7,0.3,0.7,0.7V17.4z
	 M16.8,16.8c0,0.4-0.3,0.7-0.7,0.7h-1.4V14c0-1.1-0.9-2-2-2h-1.4c-1.1,0-2,0.9-2,2v3.4H7.9c-0.4,0-0.7-0.3-0.7-0.7v-5.9
	c0-0.2,0.1-0.4,0.2-0.5l4.1-3.6c0.3-0.2,0.6-0.2,0.9,0l4.1,3.6c0.1,0.1,0.2,0.3,0.2,0.5V16.8z"/>
</svg>
