<?xml version="1.0" encoding="utf-8"?>
<!-- Generator: Adobe Illustrator 25.2.2, SVG Export Plug-In . SVG Version: 6.00 Build 0)  -->
<svg version="1.1" id="Laag_1" xmlns="http://www.w3.org/2000/svg" xmlns:xlink="http://www.w3.org/1999/xlink" x="0px" y="0px"
	 viewBox="0 0 24 24" style="enable-background:new 0 0 24 24;" xml:space="preserve">
<style type="text/css">
	.st0{fill:#0F4C81;}
	.st1{fill:#FFFFFF;}
</style>
<path class="st0" d="M17.5,19.5h-11c-1.1,0-2-0.9-2-2v-11c0-1.1,0.9-2,2-2h11c1.1,0,2,0.9,2,2v11C19.5,18.6,18.6,19.5,17.5,19.5z"/>
<path class="st1" d="M12,10.3c-0.4,0-0.8,0.4-0.8,0.8v5c0,0.4,0.4,0.8,0.8,0.8s0.8-0.4,0.8-0.8v-5C12.8,10.7,12.4,10.3,12,10.3z
	 M12,7c-0.6,0-1,0.4-1,1c0,0.6,0.4,1,1,1s1-0.4,1-1C13,7.4,12.6,7,12,7z"/>
</svg>
