<?xml version="1.0" encoding="utf-8"?>
<!-- Generator: Adobe Illustrator 25.2.2, SVG Export Plug-In . SVG Version: 6.00 Build 0)  -->
<svg version="1.1" id="Laag_1" xmlns="http://www.w3.org/2000/svg" xmlns:xlink="http://www.w3.org/1999/xlink" x="0px" y="0px"
	 viewBox="0 0 24 24" style="enable-background:new 0 0 24 24;" xml:space="preserve">
<style type="text/css">
	.st0{fill-rule:evenodd;clip-rule:evenodd;fill:#0F4C81;}
</style>
<g id="Page-1_1_">
	<g id="Dribbble-Light-Preview_1_" transform="translate(-180.000000, -2119.000000)">
		<g id="icons_1_" transform="translate(56.000000, 160.000000)">
			<path id="profile_x5F_plus-_x5B__x23_1351_x5D_" class="st0" d="M142.9,1966.2v1.4h-2.1v2.1h-1.4v-2.1h-2.1v-1.4h2.1v-2.1h1.4
				v2.1H142.9z M134.6,1972.3C134.6,1972.3,134.6,1972.3,134.6,1972.3C134.6,1972.3,134.6,1972.3,134.6,1972.3
				c-0.8,0-1.4-0.6-1.4-1.4c0-0.8,0.6-1.4,1.4-1.4c0.8,0,1.4,0.6,1.4,1.4C136,1971.7,135.4,1972.3,134.6,1972.3L134.6,1972.3z
				 M136.7,1972.7c0.4-0.5,0.7-1.1,0.7-1.8c0-1.5-1.2-2.8-2.8-2.8s-2.8,1.2-2.8,2.8c0,0.7,0.3,1.3,0.7,1.8c-2,0.8-3.4,2.9-3.4,5.2
				c0,0,0,0,0,0h1.4c0-2.3,1.8-4.2,4.1-4.2c0,0,0,0,0,0s0,0,0,0c2.3,0,4.1,1.9,4.1,4.2h1.4C140.1,1975.6,138.7,1973.5,136.7,1972.7
				L136.7,1972.7z"/>
		</g>
	</g>
</g>
</svg>
