<?xml version="1.0" encoding="utf-8"?>
<!-- Generator: Adobe Illustrator 25.2.2, SVG Export Plug-In . SVG Version: 6.00 Build 0)  -->
<svg version="1.1" id="Laag_1" xmlns="http://www.w3.org/2000/svg" xmlns:xlink="http://www.w3.org/1999/xlink" x="0px" y="0px"
	 viewBox="0 0 24 24" style="enable-background:new 0 0 24 24;" xml:space="preserve">
<style type="text/css">
	.st0{fill-rule:evenodd;clip-rule:evenodd;fill:#0F4C81;}
</style>
<g id="Page-1">
	<g id="Dribbble-Light-Preview" transform="translate(-140.000000, -2119.000000)">
		<g id="icons" transform="translate(56.000000, 160.000000)">
			<path id="profile_x5F_close-_x5B__x23_1352_x5D_" class="st0" d="M101.3,1966.5l1.5,1.4l-1,1l-1.5-1.4l-1.5,1.4l-1-1l1.5-1.4
				l-1.5-1.4l1-1l1.5,1.4l1.5-1.4l1,1L101.3,1966.5z M94.8,1971.9C94.8,1971.9,94.8,1971.9,94.8,1971.9
				C94.7,1971.9,94.7,1971.9,94.8,1971.9c-0.8,0-1.4-0.6-1.4-1.4c0-0.8,0.6-1.4,1.4-1.4c0.8,0,1.4,0.6,1.4,1.4
				C96.2,1971.3,95.5,1971.9,94.8,1971.9L94.8,1971.9z M96.9,1972.5c0.4-0.5,0.7-1.2,0.7-1.8c0-1.5-1.2-2.8-2.8-2.8
				c-1.5,0-2.8,1.2-2.8,2.7c0,0.7,0.3,1.4,0.7,1.9c-2,0.8-3.5,2.5-3.5,5.3h0h1.4c0-2.7,1.9-4.3,4.1-4.3c0,0,0-0.1,0-0.1
				c0,0,0,0.1,0,0.1c2.3,0,4.1,1.5,4.1,4.3h1.4C100.3,1975,98.9,1973.3,96.9,1972.5L96.9,1972.5z"/>
		</g>
	</g>
</g>
</svg>
