<?xml version="1.0" encoding="utf-8"?>
<!-- Generator: Adobe Illustrator 25.2.2, SVG Export Plug-In . SVG Version: 6.00 Build 0)  -->
<svg version="1.1" id="Laag_1" xmlns="http://www.w3.org/2000/svg" xmlns:xlink="http://www.w3.org/1999/xlink" x="0px" y="0px"
	 viewBox="0 0 24 24" style="enable-background:new 0 0 24 24;" xml:space="preserve">
<style type="text/css">
	.st0{fill:#0F4C81;}
</style>
<path class="st0" d="M16.8,7.2c-1.3-1.3-3-2-4.8-2c-1.8,0-3.5,0.7-4.8,2s-2,3-2,4.8c0,1.8,0.7,3.5,2,4.8s3,2,4.8,2
	c1.8,0,3.5-0.7,4.8-2s2-3,2-4.8C18.8,10.2,18.1,8.5,16.8,7.2z M8.6,17c0.3-1.6,1.7-2.8,3.4-2.8c1.7,0,3.1,1.2,3.4,2.8
	c-1,0.7-2.1,1.1-3.4,1.1S9.6,17.6,8.6,17z M9.8,11.1C9.8,10,10.8,9,12,9s2.2,1,2.2,2.2s-1,2.2-2.2,2.2S9.8,12.3,9.8,11.1z
	 M16.1,16.4c-0.2-0.8-0.6-1.5-1.2-2c-0.4-0.3-0.8-0.6-1.2-0.8c0.8-0.5,1.3-1.4,1.3-2.5c0-1.6-1.3-3-3-3s-3,1.3-3,3
	c0,1,0.5,2,1.3,2.5c-0.4,0.2-0.9,0.4-1.2,0.8c-0.6,0.5-1,1.2-1.2,2C6.7,15.3,6,13.7,6,12c0-3.3,2.7-6,6-6s6,2.7,6,6
	C18,13.7,17.3,15.3,16.1,16.4z"/>
</svg>
